<?xml version="1.0" encoding="UTF-8" standalone="no"?>
<!-- Created with Inkscape (http://www.inkscape.org/) -->

<svg
   xmlns:dc="http://purl.org/dc/elements/1.1/"
   xmlns:cc="http://creativecommons.org/ns#"
   xmlns:rdf="http://www.w3.org/1999/02/22-rdf-syntax-ns#"
   xmlns:svg="http://www.w3.org/2000/svg"
   xmlns="http://www.w3.org/2000/svg"
   xmlns:sodipodi="http://sodipodi.sourceforge.net/DTD/sodipodi-0.dtd"
   xmlns:inkscape="http://www.inkscape.org/namespaces/inkscape"
   version="1.1"
   id="svg6775"
   width="515"
   height="713"
   viewBox="0 0 515 713"
   sodipodi:docname="avatar.svg"
   inkscape:version="0.92.2 5c3e80d, 2017-08-06">
  <metadata
     id="metadata6781">
    <rdf:RDF>
      <cc:Work
         rdf:about="">
        <dc:format>image/svg+xml</dc:format>
        <dc:type
           rdf:resource="http://purl.org/dc/dcmitype/StillImage" />
        <dc:title></dc:title>
      </cc:Work>
    </rdf:RDF>
  </metadata>
  <defs
     id="defs6779" />
  <sodipodi:namedview
     pagecolor="#ffffff"
     bordercolor="#666666"
     borderopacity="1"
     objecttolerance="10"
     gridtolerance="10"
     guidetolerance="10"
     inkscape:pageopacity="0"
     inkscape:pageshadow="2"
     inkscape:window-width="1682"
     inkscape:window-height="1010"
     id="namedview6777"
     showgrid="false"
     inkscape:zoom="1.1176393"
     inkscape:cx="257.5"
     inkscape:cy="356.5"
     inkscape:window-x="0"
     inkscape:window-y="0"
     inkscape:window-maximized="0"
     inkscape:current-layer="svg6775" />
  <path
     style="fill:#000000"
     d="m 342.62251,698.75 c -1.83196,-1.65604 -4.06611,-7.13369 -8.46321,-20.75 -11.72418,-36.3057 -19.52089,-68.95825 -25.74029,-107.80003 -0.40441,-2.52561 -0.92624,-3.1775 -2.22371,-2.77791 -24.11114,7.4257 -86.56104,7.26875 -120.16819,-0.30201 -2.46008,-0.55419 -4.5944,-0.88609 -4.74293,-0.73756 C 179.59032,568.07635 173,658.75496 173,680.36753 c 0,10.55384 -1.06559,16.42196 -3.23173,17.79685 -2.3881,1.51577 -7.41631,0.88202 -9.27215,-1.16866 -1.682,-1.8586 -1.76682,-3.65762 -1.16683,-24.75 0.73712,-25.91293 2.66096,-54.89685 5.74775,-86.59338 1.1702,-12.01621 1.74409,-22.18257 1.2753,-22.59191 -0.46879,-0.40934 -3.95836,-1.55891 -7.7546,-2.5546 -9.12776,-2.39407 -11.0094,-4.3016 -10.22881,-10.36957 0.5535,-4.30263 3.12547,-32.3874 3.98353,-43.49821 l 0.37547,-4.86196 -5.11397,-2.07301 C 138.47394,495.99805 122.27129,487.30724 114.5413,481.9635 104.02013,474.69022 95.521343,465.29604 91.114593,456.06866 87.65316,448.82071 87.502369,448.05509 87.555906,438 c 0.06221,-11.6831 2.084694,-18.70129 8.566912,-29.72785 5.007042,-8.5172 21.720572,-24.95885 32.591702,-32.06151 5.06798,-3.31118 9.79298,-6.27088 10.5,-6.57712 0.89126,-0.38605 0.52958,-1.10525 -1.17935,-2.34516 C 121.8571,355.55038 111.0869,344.53952 101.37221,329.80619 88.843657,310.80535 82.339953,295.44782 78.358917,275.46372 c -2.474696,-12.42255 -2.465054,-38.95502 0.01961,-53.95549 3.943588,-23.80834 16.092324,-46.03452 36.094173,-66.03448 24.45278,-24.45047 51.0991,-36.63189 90.8398,-41.52761 6.1635,-0.75929 16.57595,-1.0143 28,-0.68575 42.84602,1.23226 73.65042,13.17095 100.16327,38.81972 15.68218,15.17108 26.65146,32.74717 33.41385,53.53905 9.16481,28.17845 5.55936,64.9647 -9.54109,97.34734 -4.50631,9.66371 -17.42206,30.0021 -21.23487,33.43849 -1.16251,1.04774 -2.11366,2.26627 -2.11366,2.70784 0,0.44158 2.1375,2.01442 4.75,3.49522 32.39137,18.35984 51.17643,33.49241 57.90214,46.64387 4.64911,9.09086 3.40354,19.22459 -3.36813,27.4026 -5.05666,6.10682 -23.26264,15.27121 -38.28401,19.27111 l -4.5,1.19826 -0.0573,30.68806 c -0.0577,30.95264 -0.95883,43.36666 -5.05854,69.68946 l -1.66484,10.68933 -4.10969,2.9995 c -2.26032,1.64972 -7.14718,4.53746 -10.85968,6.4172 -7.99398,4.04756 -7.72654,2.58056 -4.20776,23.08127 5.23404,30.49389 15.22503,69.72608 25.40632,99.76445 C 352.17685,687.0274 354,693.40724 354,694.63058 354,697.12366 349.69176,701 346.92091,701 c -0.99516,0 -2.92944,-1.0125 -4.2984,-2.25 z M 287.5,557.61811 c 5.5,-0.76396 13.375,-2.62256 17.5,-4.13022 9.00415,-3.29098 24.19804,-10.78394 25.65039,-12.64965 1.08547,-1.39442 3.43657,-17.12362 5.50634,-36.83824 1.25762,-11.9789 1.81707,-61.35097 0.70782,-62.46567 -0.3495,-0.35121 -5.5245,0.26089 -11.5,1.36023 -5.9755,1.09933 -14.12705,2.51344 -18.11455,3.14246 -4.1451,0.65389 -7.25952,1.64032 -7.27224,2.30333 -0.0542,2.82962 -3.90823,5.93459 -9.00825,7.25752 -4.88517,1.26719 -5.68176,1.22858 -8.87842,-0.43034 -6.8602,-3.56012 -9.65253,-13.08084 -6.96584,-23.75065 C 276.6151,425.50015 279.8549,423 286.0322,423 h 4.76249 l 1.15866,-6.75 c 1.79009,-10.42851 7.58852,-17.53496 11.59464,-14.21017 1.95764,1.62469 1.8285,5.26808 -0.54799,15.46017 -2.38471,10.22737 -2.56044,14.5 -0.59635,14.5 3.1955,0 32.15915,-5.21466 32.89112,-5.92176 1.83769,-1.77528 -11.67569,-74.52978 -13.69891,-73.7534 -0.63058,0.24198 -4.58433,2.90648 -8.78611,5.92112 -4.20179,3.01464 -12.06539,7.75349 -17.47468,10.53077 -26.40167,13.55535 -50.90454,19.29499 -83.33507,19.52068 -17.22915,0.1199 -28.08588,-1.45771 -42.29327,-6.14571 l -5.79327,-1.91159 0.54929,4.12994 c 1.02834,7.7318 2.47259,32.07873 3.122,52.62995 0.84301,26.67795 -1.97735,84.83138 -5.1717,106.63583 l -0.60589,4.13582 12.84642,3.09178 c 15.42567,3.71252 33.88075,6.75542 48.84642,8.05387 14.22006,1.23375 51.16351,0.48381 64,-1.29919 z M 154,454.65521 c 0,-27.33933 -1.02784,-51.89268 -2.84446,-67.94934 l -0.65554,-5.79414 -8.97088,5.29414 c -6.35948,3.75302 -12.07111,8.35065 -19.62106,15.79413 -8.86773,8.74268 -11.29938,11.83002 -14.52912,18.44687 -3.46146,7.09158 -3.87894,8.75978 -3.87894,15.5 0,6.11378 0.51374,8.64937 2.69589,13.30577 2.96835,6.33406 10.57743,14.94249 18.06819,20.44121 5.28088,3.87652 26.47052,15.24472 28.48592,15.28263 0.97305,0.0183 1.25,-6.69956 1.25,-30.32127 z M 358.57485,420.6441 c 19.41696,-6.60555 28.74687,-14.54873 26.45894,-22.52627 -1.48082,-5.16331 -4.76772,-9.70753 -11.35119,-15.6933 C 365.96616,375.40866 338,356.69509 338,358.5475 c 0,0.39085 1.79702,9.99005 3.99339,21.33156 3.65929,18.89572 6.9862,38.79384 7.00071,41.87094 0.008,1.76956 1.70353,1.57389 9.58075,-1.1059 z M 242.34917,371.86489 c 22.58715,-3.82721 42.97199,-11.90031 61.15083,-24.21786 23.68182,-16.04624 41.75755,-43.30763 50.74847,-76.53763 2.99316,-11.0626 3.143,-12.5043 3.18131,-30.6094 0.0476,-22.49115 -1.17497,-28.18735 -9.87282,-46 -11.12348,-22.7802 -26.77974,-39.09504 -50.31422,-52.43071 -19.85344,-11.24982 -55.08068,-17.63262 -83.47721,-15.12517 -14.67967,1.29624 -32.72113,4.79843 -43.3406,8.41324 -22.74135,7.74103 -47.47722,26.8181 -60.70253,46.8157 -6.2844,9.50244 -12.697178,22.00392 -15.043599,29.32694 -6.574868,20.51972 -5.896743,55.89641 1.495159,78 5.14227,15.37663 17.68985,36.46733 29.27932,49.21437 16.07767,17.68352 42.42692,30.94232 70.04672,35.24711 8.72369,1.35967 32.81375,0.28159 46.84917,-2.09659 z M 197.5,342.99211 c -7.8573,-1.43821 -16.37574,-4.69419 -23.99038,-9.16977 -7.97678,-4.68843 -23.24948,-19.4459 -28.82543,-27.85301 -3.6587,-5.51637 -9.16926,-17.81759 -8.34912,-18.63773 0.24358,-0.24358 19.50533,-0.85544 42.8039,-1.35969 23.29857,-0.50426 52.03603,-1.59461 63.86103,-2.42301 11.825,-0.82839 24.5375,-1.51579 28.25,-1.52754 L 278,282 l -0.021,3.25 c -0.0314,4.86199 -4.49997,19.29592 -8.48911,27.42062 -6.32097,12.87395 -20.42697,23.80123 -36.49703,28.27258 -8.58178,2.38781 -27.63305,3.48759 -35.49288,2.04891 z m -72.79616,-65.42596 c -10.1314,-2.70475 -16.00943,-12.4931 -13.49643,-22.47482 1.46802,-5.83104 7.05288,-11.4159 12.88392,-12.88392 C 136.13186,239.17608 147,247.98868 147,260.78324 c 0,6.26882 -6.37086,15.12631 -12,16.68376 -4.9075,1.35779 -5.5581,1.36406 -10.29616,0.0992 z m 88.29667,-3.63524 c -8.53407,-3.58861 -13.36513,-15.55979 -9.9339,-24.61581 3.5206,-9.29187 15.89869,-13.92426 24.9153,-9.32433 6.21283,3.16955 9.37218,8.12691 9.8013,15.37927 0.32038,5.41458 0.0198,6.66353 -2.57538,10.70202 -1.81514,2.8246 -4.42289,5.27775 -6.82296,6.41843 -4.65164,2.21081 -11.93139,2.8924 -15.38436,1.44042 z M 101.44615,232.91287 c -1.627108,-2.63272 2.27078,-3.28173 25.145,-4.18676 18.15597,-0.71835 24.26384,-0.65244 26.28098,0.28363 l 2.62787,1.21947 -2.37381,0.89897 c -1.30559,0.49443 -11.65559,1.33297 -23,1.8634 -26.35102,1.23212 -27.87248,1.22794 -28.68004,-0.0787 z M 201,230.33204 c -5.10985,-0.87912 -5.64859,-1.50552 -2.5,-2.90674 4.61267,-2.05278 48.77999,-1.99779 50.49018,0.0629 0.9885,1.19107 0.96304,1.57406 -0.12756,1.91844 -1.94087,0.61288 -44.85631,1.44265 -47.86262,0.92543 z"
     id="path6785"
     inkscape:connector-curvature="0" />
  <path
     style="opacity:1;fill:#fccb98;fill-opacity:1;stroke:none;stroke-width:11.33858299;stroke-miterlimit:4;stroke-dasharray:none;stroke-dashoffset:0;stroke-opacity:1"
     d="m 187.78341,372.08491 c -23.37686,-5.28612 -44.41395,-16.29858 -59.08859,-30.9316 -11.90364,-11.86988 -27.08287,-36.46959 -32.121048,-52.05588 -6.780515,-20.97647 -7.762642,-54.48346 -2.186747,-74.60475 4.208278,-15.18609 16.742385,-35.60777 29.867275,-48.66242 18.75549,-18.65511 38.04778,-29.21996 62.65048,-34.30866 34.48485,-7.13268 63.86062,-5.87922 93.57931,3.993 21.10157,7.00971 41.51849,21.96188 55.21812,40.43858 6.08997,8.21354 14.55628,24.25075 17.73393,33.59229 4.70558,13.83332 5.00801,43.20316 0.61859,60.07498 -8.22471,31.61371 -25.05683,58.21221 -47.6032,75.22363 -14.34458,10.8231 -38.73795,21.46627 -58.25686,25.41827 -19.41903,3.93177 -47.35636,4.77461 -60.41126,1.82256 z m 41.62166,-30.04457 c 14.13208,-2.6285 31.80225,-14.29678 38.2107,-25.23196 4.89638,-8.35505 11.00017,-26.63169 11.00017,-32.93794 v -2.45198 l -14.53958,0.60402 c -7.99676,0.33221 -20.57909,0.97696 -27.96072,1.43278 -7.38163,0.45583 -30.5331,1.26742 -51.44772,1.80354 -20.91462,0.53611 -40.51494,1.19153 -43.55627,1.45648 l -5.52969,0.48172 1.20356,3.41124 c 1.82983,5.18627 6.57211,14.42606 9.20431,17.93353 3.82294,5.09416 13.64415,15.02312 19.88848,20.10668 8.95955,7.29403 21.79344,13.14377 32.5572,14.8397 5.87936,0.92634 22.34309,0.15667 30.96956,-1.44781 z m -93.46363,-64.7069 c 10.46237,-4.7524 14.45067,-18.78688 7.95824,-28.00434 -9.99216,-14.18609 -32.07124,-8.18719 -33.31825,9.0526 -0.66781,9.23226 4.3818,16.48922 13.44241,19.31853 5.22836,1.63263 7.68214,1.55711 11.9176,-0.36679 z m 92.56889,-4.8592 c 2.70285,-1.3151 5.01349,-3.42958 7.02949,-6.43276 2.79377,-4.1618 2.9727,-4.86117 2.56638,-10.03095 -0.5483,-6.97626 -2.90706,-11.60827 -7.59947,-14.92347 -6.41684,-4.5335 -15.57294,-4.11206 -22.45814,1.03373 -10.76002,8.04172 -6.9668,28.35279 6.06852,32.4943 3.35598,1.06624 9.75925,0.11382 14.39322,-2.14085 z m -84.30878,-40.01812 c 11.02784,-0.95567 13.29099,-1.83137 9.15761,-3.54347 -4.72412,-1.9568 -50.26306,-0.15105 -52.49572,2.08161 -0.28734,0.28734 -0.26219,1.20063 0.0559,2.02955 0.52604,1.37083 2.09334,1.44931 17.33433,0.86799 9.21581,-0.35152 20.89236,-0.99757 25.94789,-1.43568 z m 99.74309,-2.3401 c 6.45964,-0.61007 8.17896,-2.36347 3.57898,-3.64987 -3.97033,-1.11033 -45.93005,-0.69568 -48.7635,0.48188 -2.80443,1.1655 -3.19487,2.53325 -0.89474,3.13433 2.45539,0.64166 39.35614,0.66861 46.07926,0.0336 z"
     id="path6787"
     inkscape:connector-curvature="0" />
  <path
     style="opacity:1;fill:#9860d8;fill-opacity:1;stroke:none;stroke-width:11.33858299;stroke-miterlimit:4;stroke-dasharray:none;stroke-dashoffset:0;stroke-opacity:1"
     d="m 219.11552,558.09029 c -14.07542,-1.45809 -39.33481,-6.1091 -53.54952,-9.86006 -3.25899,-0.85998 -3.41572,-1.06179 -2.9188,-3.75834 0.98751,-5.35869 3.15175,-31.46496 4.11566,-49.64532 1.77539,-33.48599 0.95645,-85.48011 -1.70508,-108.25448 -0.57497,-4.91997 -0.48029,-5.55906 0.75246,-5.07898 6.24085,2.43041 23.59314,5.97372 32.99222,6.73694 16.67212,1.35382 43.60386,-0.75959 58.78701,-4.61318 17.34878,-4.40323 39.85527,-14.49332 54.4848,-24.42655 5.19808,-3.52942 9.18292,-5.68096 9.6523,-5.21158 1.66325,1.66325 11.09301,50.12491 12.85964,66.08861 0.54105,4.88911 0.42332,5.55527 -1.06228,6.01042 -3.34673,1.02537 -26.46718,5.0438 -29.02001,5.0438 -2.36452,0 -2.62474,-0.28822 -2.62536,-2.90792 -3.9e-4,-1.59935 0.85567,-7.20777 1.90235,-12.46315 2.05461,-10.3162 1.81027,-13.70868 -1.0528,-14.61739 -4.27983,-1.35836 -9.03942,5.14295 -11.07346,15.12566 l -1.11413,5.468 -5.35077,0.96417 c -2.94292,0.53029 -5.8692,1.28458 -6.50283,1.67618 -4.40269,2.72101 -6.13269,18.02892 -2.78018,24.60038 1.83806,3.60289 5.17547,6.73312 8.20338,7.69415 4.43241,1.40679 15.97965,-3.80844 15.97965,-7.2171 0,-0.66125 0.74268,-1.43799 1.6504,-1.72609 2.40065,-0.76194 31.60151,-5.85865 33.57038,-5.85937 1.60351,-5.8e-4 1.65089,1.18265 1.22711,30.64434 -0.42118,29.28106 -1.12276,38.90182 -4.32269,59.27673 -0.54101,3.44476 -1.5578,7.16939 -2.25954,8.27694 -0.70174,1.10756 -4.48439,3.62695 -8.40589,5.59864 -16.71883,8.40607 -26.59768,11.08761 -46.1014,12.51392 -13.80297,1.0094 -46.26386,0.96367 -56.33262,-0.0794 z"
     id="path6789"
     inkscape:connector-curvature="0" />
</svg>
